HIERARCHY
ROOT joint_Root
{
	OFFSET 0.0 0.0 0.0
	CHANNELS 6 Xposition Yposition Zposition Zrotation Xrotation Yrotation 
	JOINT Hips
	{
		OFFSET 4.5925 91.4895 -427.239
		CHANNELS 6 Xposition Yposition Zposition Zrotation Xrotation Yrotation 
		JOINT Spine
		{
			OFFSET 15.7357 0.0 0.0
			CHANNELS 6 Xposition Yposition Zposition Zrotation Xrotation Yrotation 
			JOINT Chest
			{
				OFFSET 8.98455 -0.406207 0.0
				CHANNELS 6 Xposition Yposition Zposition Zrotation Xrotation Yrotation 
				JOINT Neck
				{
					OFFSET 16.3773 0.0 0.0
					CHANNELS 6 Xposition Yposition Zposition Zrotation Xrotation Yrotation 
					JOINT Head
					{
						OFFSET 6.45672 0.0 0.0
						CHANNELS 6 Xposition Yposition Zposition Zrotation Xrotation Yrotation 
						End Site
						{
							OFFSET 0.0 0.0 0.0
						}
					}
				}
				JOINT Shoulder_L
				{
					OFFSET 12.9942 -0.242716 4.98039
					CHANNELS 6 Xposition Yposition Zposition Zrotation Xrotation Yrotation 
					JOINT UpperArm_L
					{
						OFFSET 5.34809 0.0 0.0
						CHANNELS 6 Xposition Yposition Zposition Zrotation Xrotation Yrotation 
						JOINT LowerArm_L
						{
							OFFSET 24.3286 1.87007e-05 0.0
							CHANNELS 6 Xposition Yposition Zposition Zrotation Xrotation Yrotation 
							JOINT Hand_L
							{
								OFFSET 22.2916 0.0 0.0
								CHANNELS 6 Xposition Yposition Zposition Zrotation Xrotation Yrotation 
								End Site
								{
									OFFSET 0.0 0.0 0.0
								}
							}
						}
					}
				}
				JOINT Shoulder_R
				{
					OFFSET 12.9945 -0.242716 -4.98039
					CHANNELS 6 Xposition Yposition Zposition Zrotation Xrotation Yrotation 
					JOINT UpperArm_R
					{
						OFFSET -5.34813 0.0 0.0
						CHANNELS 6 Xposition Yposition Zposition Zrotation Xrotation Yrotation 
						JOINT LowerArm_R
						{
							OFFSET -24.3289 0.000322201 0.0
							CHANNELS 6 Xposition Yposition Zposition Zrotation Xrotation Yrotation 
							JOINT Hand_R
							{
								OFFSET -22.2915 -0.000108084 0.0
								CHANNELS 6 Xposition Yposition Zposition Zrotation Xrotation Yrotation 
								End Site
								{
									OFFSET 0.0 0.0 0.0
								}
							}
						}
					}
				}
			}
		}
		JOINT UpperLeg_L
		{
			OFFSET -2.19248 -6.46944 0.0
			CHANNELS 6 Xposition Yposition Zposition Zrotation Xrotation Yrotation 
			JOINT LowerLeg_L
			{
				OFFSET 39.0811 0.0 -1.23785e-05
				CHANNELS 6 Xposition Yposition Zposition Zrotation Xrotation Yrotation 
				JOINT Foot_L
				{
					OFFSET 40.9854 0.0 -1.26872e-05
					CHANNELS 6 Xposition Yposition Zposition Zrotation Xrotation Yrotation 
					JOINT Toes_L
					{
						OFFSET 11.7543 0.0 0.0
						CHANNELS 6 Xposition Yposition Zposition Zrotation Xrotation Yrotation 
						End Site
						{
							OFFSET 0.0 0.0 0.0
						}
					}
				}
			}
		}
		JOINT UpperLeg_R
		{
			OFFSET -2.19251 6.46944 0.0
			CHANNELS 6 Xposition Yposition Zposition Zrotation Xrotation Yrotation 
			JOINT LowerLeg_R
			{
				OFFSET -39.0811 -0.00228153 -0.0401928
				CHANNELS 6 Xposition Yposition Zposition Zrotation Xrotation Yrotation 
				JOINT Foot_R
				{
					OFFSET -40.9854 0.0 0.0
					CHANNELS 6 Xposition Yposition Zposition Zrotation Xrotation Yrotation 
					JOINT Toes_R
					{
						OFFSET -11.7543 0.0 0.0
						CHANNELS 6 Xposition Yposition Zposition Zrotation Xrotation Yrotation 
						End Site
						{
							OFFSET 0.0 0.0 0.0
						}
					}
				}
			}
		}
	}
}
MOTION
Frames:	8
Frame Time:	0.0333333
0.000000 0.000000 0.000000 0.000000 0.000000 -0.000000 -11.548500 89.906300 -1.644280 84.355700 -1.222780 9.836400 15.735700 0.000005 -0.000001 83.347700 83.075900 -80.408500 8.984550 -0.406207 -0.000000 6.039800 -1.643990 5.958980 16.377300 -0.000001 -0.000001 4.695650 -2.740950 3.776260 6.456720 -0.000001 -0.000000 -1.808830 -3.564320 13.568300 12.994200 -0.242716 4.980390 -91.589100 5.233430 -73.083800 5.348090 -0.000007 -0.000001 -66.806500 32.426300 -10.590300 24.328600 0.000019 0.000005 11.997900 27.907900 -24.420300 22.291600 -0.000001 0.000005 7.731530 5.308590 -0.171303 12.994500 -0.242716 -4.980390 87.942400 11.397900 -79.696500 -5.348130 -0.000001 -0.000004 -61.483900 28.300700 -7.405780 -24.328900 0.000322 -0.000009 2.740700 8.902580 -17.194800 -22.291500 -0.000108 -0.000004 15.086800 5.408000 -3.199650 -2.192480 -6.469440 -0.000000 -162.357000 -8.077410 -2.680700 39.081100 -0.000007 -0.000012 -0.315026 0.477095 33.437500 40.985400 -0.000006 -0.000013 -7.242430 7.156850 -69.557900 11.754300 -0.000000 0.000003 -0.000080 -0.000845 -16.610100 -2.192510 6.469440 -0.000001 -174.897000 29.098200 -176.789000 -39.081100 -0.002282 -0.040193 -0.145217 0.281477 27.818900 -40.985400 0.000008 0.000006 11.624400 14.461800 -73.362700 -11.754300 -0.000006 -0.000006 -0.000946 -0.014633 -17.168300
0.000000 0.000000 0.000000 0.000000 0.000000 -0.000000 -11.555600 89.907100 -1.712550 84.366200 -1.092050 9.919000 15.735700 0.000005 -0.000001 83.259800 83.066000 -80.336800 8.984550 -0.406207 -0.000000 6.057490 -1.666680 5.927960 16.377300 -0.000001 -0.000001 4.896540 -2.798890 3.813170 6.456720 -0.000001 -0.000000 -1.567350 -3.594980 13.568300 12.994200 -0.242716 4.980390 -91.599900 5.270790 -73.088400 5.348090 -0.000007 -0.000001 -65.568400 32.508000 -11.817000 24.328600 0.000019 0.000005 12.952300 28.613800 -25.651800 22.291600 -0.000001 0.000005 6.255710 5.326230 -0.683081 12.994500 -0.242716 -4.980390 87.967100 11.164600 -79.611900 -5.348130 -0.000001 -0.000004 -61.177100 28.043200 -8.115340 -24.328900 0.000322 -0.000009 2.821790 8.853200 -17.764600 -22.291500 -0.000108 -0.000004 14.583500 5.412320 -3.342600 -2.192480 -6.469440 -0.000000 -162.388000 -7.943270 -2.704980 39.081100 -0.000007 -0.000012 -0.311853 0.472028 33.452000 40.985400 -0.000006 -0.000013 -7.238800 7.167190 -69.506600 11.754300 -0.000000 0.000003 -0.000067 -0.000726 -16.605600 -2.192510 6.469440 -0.000001 -174.939000 29.251400 -176.769000 -39.081100 -0.002282 -0.040193 -0.147362 0.285267 27.841600 -40.985400 0.000008 0.000006 11.640600 14.442600 -73.335400 -11.754300 -0.000006 -0.000006 -0.000931 -0.014428 -17.159900
0.000000 0.000000 0.000000 0.000000 0.000000 -0.000000 -11.564700 89.903600 -1.796800 84.385500 -0.984727 10.068600 15.735700 0.000005 -0.000001 83.217700 83.024400 -80.325100 8.984550 -0.406207 -0.000000 6.138740 -1.683970 5.869330 16.377300 -0.000001 -0.000001 5.046290 -2.911340 3.889610 6.456720 -0.000001 -0.000000 -1.310890 -3.562060 13.561900 12.994200 -0.242716 4.980390 -91.604100 5.287100 -73.096000 5.348090 -0.000007 -0.000001 -63.566800 32.202300 -13.635300 24.328600 0.000019 0.000005 14.532600 29.938400 -27.447700 22.291600 -0.000001 0.000005 5.148690 5.350930 -1.404440 12.994500 -0.242716 -4.980390 87.987700 10.966900 -79.536000 -5.348130 -0.000001 -0.000004 -60.450700 27.518500 -9.133310 -24.328900 0.000322 -0.000009 2.899510 8.564940 -18.789000 -22.291500 -0.000108 -0.000004 14.194800 5.414530 -3.415840 -2.192480 -6.469440 -0.000000 -162.398000 -7.909920 -2.682540 39.081100 -0.000007 -0.000012 -0.310506 0.469226 33.494900 40.985400 -0.000006 -0.000013 -7.201110 7.264160 -69.444400 11.754300 -0.000000 0.000003 -0.000070 -0.000758 -16.606800 -2.192510 6.469440 -0.000001 -175.009000 29.340400 -176.693000 -39.081100 -0.002282 -0.040193 -0.144622 0.279474 27.892900 -40.985400 0.000008 0.000006 11.648900 14.389800 -73.315400 -11.754300 -0.000006 -0.000006 -0.000862 -0.013429 -17.119300
0.000000 0.000000 0.000000 0.000000 0.000000 -0.000000 -11.585400 89.905900 -1.919100 84.389100 -0.774613 10.155800 15.735700 0.000005 -0.000001 83.009600 83.024500 -80.143100 8.984550 -0.406207 -0.000000 6.133390 -1.733880 5.819990 16.377300 -0.000001 -0.000001 5.319810 -3.010130 3.909710 6.456720 -0.000001 -0.000000 -1.110310 -3.688460 13.611600 12.994200 -0.242716 4.980390 -91.564300 5.178210 -73.165900 5.348090 -0.000007 -0.000001 -61.183900 31.077000 -15.968800 24.328600 0.000019 0.000005 15.849300 30.685500 -29.087500 22.291600 -0.000001 0.000005 5.408660 5.361100 -1.712530 12.994500 -0.242716 -4.980390 87.990300 10.770700 -79.365500 -5.348130 -0.000001 -0.000004 -59.192500 26.622400 -10.540200 -24.328900 0.000322 -0.000009 3.063510 8.332580 -20.276400 -22.291500 -0.000108 -0.000004 13.960600 5.415310 -3.441600 -2.192480 -6.469440 -0.000000 -162.394000 -7.826290 -2.766110 39.081100 -0.000007 -0.000012 -0.308103 0.465425 33.504400 40.985400 -0.000006 -0.000013 -7.181230 7.396020 -69.325100 11.754300 -0.000000 0.000003 -0.000069 -0.000745 -16.606400 -2.192510 6.469440 -0.000001 -175.019000 29.479200 -176.717000 -39.081100 -0.002282 -0.040193 -0.147339 0.284270 27.921000 -40.985400 0.000008 0.000006 11.661700 14.333300 -73.257000 -11.754300 -0.000006 -0.000006 -0.000970 -0.014979 -17.182300
0.000000 0.000000 0.000000 0.000000 0.000000 -0.000000 -11.610300 89.915400 -2.062260 84.370000 -0.637333 10.208000 15.735700 0.000005 -0.000001 82.704400 83.054000 -79.854700 8.984550 -0.406207 -0.000000 6.067080 -1.801420 5.788860 16.377300 -0.000001 -0.000001 5.674460 -3.081140 3.976050 6.456720 -0.000001 -0.000000 -0.909301 -3.700640 13.528500 12.994200 -0.242716 4.980390 -91.511500 5.004570 -73.171200 5.348090 -0.000007 -0.000001 -58.501300 28.997800 -18.573600 24.328600 0.000019 0.000005 16.586000 30.201900 -30.629200 22.291600 -0.000001 0.000005 5.846540 5.362290 -1.749330 12.994500 -0.242716 -4.980390 87.999800 10.534800 -79.185600 -5.348130 -0.000001 -0.000004 -57.377900 25.506500 -12.446900 -24.328900 0.000322 -0.000009 3.217160 7.934470 -22.162800 -22.291500 -0.000108 -0.000004 14.069800 5.416480 -3.480970 -2.192480 -6.469440 -0.000000 -162.352000 -7.891250 -2.877850 39.081100 -0.000007 -0.000012 -0.306074 0.462259 33.510200 40.985400 -0.000006 -0.000013 -7.129350 7.599200 -69.178200 11.754300 -0.000000 0.000003 -0.000070 -0.000759 -16.606900 -2.192510 6.469440 -0.000001 -174.967000 29.632500 -176.771000 -39.081100 -0.002282 -0.040193 -0.141125 0.272863 27.893200 -40.985400 0.000008 0.000006 11.693300 14.314300 -73.161500 -11.754300 -0.000006 -0.000006 -0.000934 -0.014464 -17.161400
0.000000 0.000000 0.000000 0.000000 0.000000 -0.000000 -11.633100 89.919700 -2.208070 84.345100 -0.572435 10.299800 15.735700 0.000005 -0.000001 82.530100 83.099300 -79.686500 8.984550 -0.406207 -0.000000 5.972570 -1.833860 5.776990 16.377300 -0.000001 -0.000001 6.085540 -3.154950 4.013080 6.456720 -0.000001 -0.000000 -0.718007 -3.704720 13.373600 12.994200 -0.242716 4.980390 -91.450600 4.826770 -73.250800 5.348090 -0.000007 -0.000001 -55.798400 25.801800 -21.218000 24.328600 0.000019 0.000005 17.150600 29.160500 -32.348600 22.291600 -0.000001 0.000005 5.866910 5.360120 -1.683190 12.994500 -0.242716 -4.980390 88.025000 10.227100 -79.009000 -5.348130 -0.000001 -0.000004 -55.206200 23.797800 -14.694500 -24.328900 0.000322 -0.000009 3.398160 7.494940 -24.483100 -22.291500 -0.000108 -0.000004 14.245500 5.420470 -3.614660 -2.192480 -6.469440 -0.000000 -162.299000 -7.946320 -2.935280 39.081100 -0.000007 -0.000012 -0.301183 0.454401 33.537500 40.985400 -0.000006 -0.000013 -7.098560 7.734640 -69.056400 11.754300 -0.000000 0.000003 -0.000075 -0.000803 -16.608500 -2.192510 6.469440 -0.000001 -174.955000 29.755300 -176.779000 -39.081100 -0.002282 -0.040193 -0.143087 0.276459 27.902600 -40.985400 0.000008 0.000006 11.735100 14.343900 -73.090100 -11.754300 -0.000006 -0.000006 -0.001075 -0.016471 -17.243000
0.000000 0.000000 0.000000 0.000000 0.000000 -0.000000 -11.649100 89.928100 -2.354830 84.311000 -0.601153 10.382200 15.735700 0.000005 -0.000001 82.466400 83.144000 -79.631300 8.984550 -0.406207 -0.000000 5.881890 -1.839570 5.758870 16.377300 -0.000001 -0.000001 6.452070 -3.180110 4.055300 6.456720 -0.000001 -0.000000 -0.460290 -3.694000 13.248900 12.994200 -0.242716 4.980390 -91.360300 4.540400 -73.303000 5.348090 -0.000007 -0.000001 -53.202000 21.867300 -24.137200 24.328600 0.000019 0.000005 17.698600 28.223000 -34.011600 22.291600 -0.000001 0.000005 6.018060 5.360270 -1.687930 12.994500 -0.242716 -4.980390 88.063900 9.898850 -78.875500 -5.348130 -0.000001 -0.000004 -52.781900 21.521300 -17.355200 -24.328900 0.000322 -0.000009 3.353310 6.589260 -27.058900 -22.291500 -0.000108 -0.000004 14.591700 5.421610 -3.653550 -2.192480 -6.469440 -0.000000 -162.233000 -7.964070 -2.940570 39.081100 -0.000007 -0.000012 -0.305746 0.461502 33.525100 40.985400 -0.000006 -0.000013 -7.116340 7.737420 -68.947700 11.754300 -0.000000 0.000003 -0.000070 -0.000755 -16.606700 -2.192510 6.469440 -0.000001 -174.932000 29.880800 -176.787000 -39.081100 -0.002282 -0.040193 -0.136361 0.263896 27.890300 -40.985400 0.000008 0.000006 11.823600 14.510100 -73.015800 -11.754300 -0.000006 -0.000006 -0.000967 -0.014938 -17.180700
0.000000 0.000000 0.000000 0.000000 0.000000 -0.000000 -11.652800 89.929000 -2.482710 84.293500 -0.713695 10.470400 15.735700 0.000005 -0.000001 82.396500 83.206800 -79.569000 8.984550 -0.406207 -0.000000 5.755030 -1.842710 5.741540 16.377300 -0.000001 -0.000001 6.840330 -3.146010 4.083310 6.456720 -0.000001 -0.000000 -0.230247 -3.600660 13.129200 12.994200 -0.242716 4.980390 -91.271200 4.236400 -73.279900 5.348090 -0.000007 -0.000001 -50.708900 17.545500 -27.163100 24.328600 0.000019 0.000005 18.270800 27.299400 -35.748400 22.291600 -0.000001 0.000005 6.155100 5.356220 -1.564830 12.994500 -0.242716 -4.980390 88.124600 9.493330 -78.770900 -5.348130 -0.000001 -0.000004 -50.181700 18.917600 -20.292700 -24.328900 0.000322 -0.000009 3.399250 5.930200 -29.906200 -22.291500 -0.000108 -0.000004 14.903100 5.424100 -3.737460 -2.192480 -6.469440 -0.000000 -162.211000 -7.999390 -2.933600 39.081100 -0.000007 -0.000012 -0.299202 0.450838 33.571100 40.985400 -0.000006 -0.000013 -7.120470 7.684120 -68.891100 11.754300 -0.000000 0.000003 -0.000077 -0.000824 -16.609300 -2.192510 6.469440 -0.000001 -174.947000 29.946500 -176.781000 -39.081100 -0.002282 -0.040193 -0.134129 0.259242 27.930100 -40.985400 0.000008 0.000006 11.893100 14.643300 -72.978000 -11.754300 -0.000006 -0.000006 -0.000996 -0.015356 -17.197600
